<?xml version="1.0" encoding="utf-8"?>
<!-- Generator: Adobe Illustrator 24.0.0, SVG Export Plug-In . SVG Version: 6.00 Build 0)  -->
<svg version="1.1" id="Livello_1" xmlns="http://www.w3.org/2000/svg" xmlns:xlink="http://www.w3.org/1999/xlink" x="0px" y="0px"
	 viewBox="0 0 24 24" style="enable-background:new 0 0 24 24;" xml:space="preserve">
<style type="text/css">
	.st0{fill:#FFFFFF;}
</style>
<path class="st0" d="M12.3,5.3c0.4-0.4,1-0.4,1.4,0l6,6c0.4,0.4,0.4,1,0,1.4l-6,6c-0.4,0.4-1,0.4-1.4,0c-0.4-0.4-0.4-1,0-1.4
	l5.3-5.3l-5.3-5.3C11.9,6.3,11.9,5.7,12.3,5.3z M6.3,5.3c0.4-0.4,1-0.4,1.4,0l6,6c0.4,0.4,0.4,1,0,1.4l-6,6c-0.4,0.4-1,0.4-1.4,0
	c-0.4-0.4-0.4-1,0-1.4l5.3-5.3L6.3,6.7C5.9,6.3,5.9,5.7,6.3,5.3z"/>
</svg>
